<svg id="visual" viewBox="0 0 900 300" width="900" height="300" xmlns="http://www.w3.org/2000/svg" xmlns:xlink="http://www.w3.org/1999/xlink" version="1.1"><rect x="0" y="0" width="900" height="300" fill="#ffe2e7"></rect><path d="M0 87L21.5 83.3C43 79.7 86 72.3 128.8 69.3C171.7 66.3 214.3 67.7 257.2 78C300 88.3 343 107.7 385.8 116.8C428.7 126 471.3 125 514.2 117.7C557 110.3 600 96.7 642.8 86.5C685.7 76.3 728.3 69.7 771.2 72.3C814 75 857 87 878.5 93L900 99L900 301L878.5 301C857 301 814 301 771.2 301C728.3 301 685.7 301 642.8 301C600 301 557 301 514.2 301C471.3 301 428.7 301 385.8 301C343 301 300 301 257.2 301C214.3 301 171.7 301 128.8 301C86 301 43 301 21.5 301L0 301Z" fill="#ffe2e7"></path><path d="M0 104L21.5 112.7C43 121.3 86 138.7 128.8 141.7C171.7 144.7 214.3 133.3 257.2 134.3C300 135.3 343 148.7 385.8 155.2C428.7 161.7 471.3 161.3 514.2 155.3C557 149.3 600 137.7 642.8 137.2C685.7 136.7 728.3 147.3 771.2 154.2C814 161 857 164 878.5 165.5L900 167L900 301L878.5 301C857 301 814 301 771.2 301C728.3 301 685.7 301 642.8 301C600 301 557 301 514.2 301C471.3 301 428.7 301 385.8 301C343 301 300 301 257.2 301C214.3 301 171.7 301 128.8 301C86 301 43 301 21.5 301L0 301Z" fill="#eaacc1"></path><path d="M0 178L21.5 172.7C43 167.3 86 156.7 128.8 155.8C171.7 155 214.3 164 257.2 166C300 168 343 163 385.8 167.5C428.7 172 471.3 186 514.2 187.2C557 188.3 600 176.7 642.8 176C685.7 175.3 728.3 185.7 771.2 186.2C814 186.7 857 177.3 878.5 172.7L900 168L900 301L878.5 301C857 301 814 301 771.2 301C728.3 301 685.7 301 642.8 301C600 301 557 301 514.2 301C471.3 301 428.7 301 385.8 301C343 301 300 301 257.2 301C214.3 301 171.7 301 128.8 301C86 301 43 301 21.5 301L0 301Z" fill="#ce78a4"></path><path d="M0 194L21.5 196.2C43 198.3 86 202.7 128.8 208.5C171.7 214.3 214.3 221.7 257.2 220.3C300 219 343 209 385.8 203C428.7 197 471.3 195 514.2 199.7C557 204.3 600 215.7 642.8 219C685.7 222.3 728.3 217.7 771.2 215.2C814 212.7 857 212.3 878.5 212.2L900 212L900 301L878.5 301C857 301 814 301 771.2 301C728.3 301 685.7 301 642.8 301C600 301 557 301 514.2 301C471.3 301 428.7 301 385.8 301C343 301 300 301 257.2 301C214.3 301 171.7 301 128.8 301C86 301 43 301 21.5 301L0 301Z" fill="#ab448f"></path><path d="M0 249L21.5 251.8C43 254.7 86 260.3 128.8 262.7C171.7 265 214.3 264 257.2 262.5C300 261 343 259 385.8 258.8C428.7 258.7 471.3 260.3 514.2 256C557 251.7 600 241.3 642.8 238.5C685.7 235.7 728.3 240.3 771.2 245.7C814 251 857 257 878.5 260L900 263L900 301L878.5 301C857 301 814 301 771.2 301C728.3 301 685.7 301 642.8 301C600 301 557 301 514.2 301C471.3 301 428.7 301 385.8 301C343 301 300 301 257.2 301C214.3 301 171.7 301 128.8 301C86 301 43 301 21.5 301L0 301Z" fill="#800080"></path></svg>